<?xml version="1.0" encoding="UTF-8" standalone="no"?>
<svg
   version="1.1"
   viewBox="0 0 265 283.75"
   width="265"
   height="283.75"
   id="svg1177"
   sodipodi:docname="cryptography-academy-centered.svg"
   inkscape:version="1.1.2 (0a00cf5339, 2022-02-04)"
   xmlns:inkscape="http://www.inkscape.org/namespaces/inkscape"
   xmlns:sodipodi="http://sodipodi.sourceforge.net/DTD/sodipodi-0.dtd"
   xmlns="http://www.w3.org/2000/svg"
   xmlns:svg="http://www.w3.org/2000/svg">
  <sodipodi:namedview
     id="namedview1179"
     pagecolor="#ffffff"
     bordercolor="#666666"
     borderopacity="1.0"
     inkscape:pageshadow="2"
     inkscape:pageopacity="0.0"
     inkscape:pagecheckerboard="0"
     showgrid="false"
     inkscape:zoom="2.7559471"
     inkscape:cx="132.62228"
     inkscape:cy="141.69357"
     inkscape:window-width="1920"
     inkscape:window-height="1016"
     inkscape:window-x="0"
     inkscape:window-y="0"
     inkscape:window-maximized="1"
     inkscape:current-layer="svg1177" />
  <!-- svg-source:excalidraw -->
  <metadata
     id="metadata1151" />
  <defs
     id="defs1155">
    <style
       class="style-fonts"
       id="style1153" />
  </defs>
  <g
     transform="matrix(0.65860679,0,0,0.79165716,53.057304,99.679665)"
     stroke="none"
     id="g1159">
    <path
       fill="#e03131"
       d="m -2.69,-2.69 q 0,0 1.79,-3.25 1.78,-3.25 4.6,-5.42 2.82,-2.17 7.62,-6.19 4.8,-4.01 14.33,-10.28 9.53,-6.27 17.74,-10.43 8.22,-4.16 15.89,-8.03 7.68,-3.86 13.69,-6.33 6,-2.47 9.11,-3.81 3.11,-1.33 4.99,-2.69 1.88,-1.36 5.31,-3.3 3.44,-1.94 6.3,-3.46 2.87,-1.52 6.35,-2.73 3.48,-1.2 5.89,-2 2.41,-0.79 4.96,-0.75 2.54,0.05 4.71,1.23 2.17,1.19 2.43,5.47 0.26,4.28 -1.07,9.02 -1.34,4.73 -3.29,9.68 -1.95,4.94 -3.84,9.87 -1.89,4.94 -3.81,9.64 -1.91,4.69 -4.15,10.24 -2.23,5.54 -4.24,10.74 -2,5.2 -3.68,8.74 -1.68,3.55 -3.39,7.38 -1.72,3.84 -3.94,8.47 -2.22,4.63 -4.95,10.18 -2.74,5.56 -4.19,8.86 -1.46,3.3 -2.8,6.49 -1.34,3.19 -3.78,8.32 -2.44,5.13 -4.46,9.96 -2.01,4.84 -4.38,10.23 -2.36,5.38 -4.43,10.17 -2.06,4.78 -4.01,9.33 -1.95,4.55 -4.63,10.2 -2.68,5.65 -4.11,8.96 -1.43,3.31 -2.74,6.52 -1.32,3.21 -3.31,8.16 -2,4.95 -3.54,9.12 -1.54,4.17 -2.91,8.09 -1.37,3.92 -2.65,8.01 -1.27,4.09 -2.61,7.56 -1.35,3.47 -2.4,6.82 -1.05,3.34 -2.92,7.14 -1.86,3.8 -4.1,6.7 -2.24,2.91 -2.37,3.37 -0.13,0.46 -0.41,0.86 -0.27,0.4 -0.66,0.68 -0.39,0.29 -0.84,0.44 -0.46,0.15 -0.94,0.14 -0.49,0 -0.94,-0.16 -0.46,-0.16 -0.84,-0.45 -0.38,-0.3 -0.64,-0.7 -0.27,-0.4 -0.4,-0.87 -0.12,-0.46 -0.09,-0.94 0.03,-0.48 0.21,-0.93 0.19,-0.45 0.5,-0.81 0.32,-0.37 0.73,-0.61 0.42,-0.24 0.89,-0.34 0.47,-0.1 0.95,-0.04 0.48,0.05 0.92,0.26 0.43,0.21 0.78,0.54 0.35,0.34 0.57,0.76 0.22,0.43 0.29,0.91 0.07,0.48 -0.01,0.95 -0.08,0.48 -0.31,0.9 -0.23,0.42 -0.58,0.75 -0.36,0.33 -0.8,0.53 -0.44,0.19 -0.92,0.24 -0.48,0.05 -0.95,-0.06 -0.47,-0.11 -0.88,-0.36 -0.41,-0.25 -0.72,-0.62 -0.3,-0.38 -0.48,-0.82 -0.17,-0.45 -0.19,-0.94 -0.02,-0.48 -0.02,-0.48 0,0 -1.37,-3.13 -1.37,-3.13 -0.79,-5.88 0.57,-2.74 1.88,-5.34 1.32,-2.6 2.53,-6.34 1.21,-3.74 2.41,-6.72 1.2,-2.98 2.55,-7.29 1.35,-4.32 2.75,-8.35 1.4,-4.02 3.01,-8.4 1.6,-4.37 3.62,-9.37 2.03,-5 3.41,-8.3 1.37,-3.29 2.9,-6.84 1.52,-3.54 4.1,-8.95 2.58,-5.41 4.54,-9.96 1.96,-4.56 4.03,-9.36 2.07,-4.8 4.35,-10.12 2.29,-5.32 4.44,-10.47 2.16,-5.14 4.48,-9.96 2.31,-4.82 3.7,-8.14 1.38,-3.32 2.96,-6.87 1.58,-3.55 4.3,-9.04 2.71,-5.49 4.85,-9.95 2.14,-4.45 3.93,-8.45 1.79,-4.01 3.27,-7.06 1.49,-3.06 3.54,-8.34 2.06,-5.28 4.31,-10.85 2.25,-5.58 4.13,-10.14 1.87,-4.57 3.82,-9.58 1.95,-5.01 3.96,-9.95 2.02,-4.94 3.21,-7.84 1.2,-2.91 2.76,-5.1 1.56,-2.19 3.33,1.49 1.78,3.67 -0.51,4.44 -2.28,0.76 -4.77,1.53 -2.48,0.77 -5.2,2.2 -2.72,1.43 -5.67,3.05 -2.94,1.63 -5.91,3.58 -2.98,1.95 -6.22,3.34 -3.24,1.39 -8.79,3.63 -5.55,2.24 -13.22,6.08 -7.67,3.84 -15.29,7.67 -7.62,3.82 -16.73,9.57 -9.11,5.75 -14.35,9.72 -5.23,3.98 -7.43,5.38 Q 9.17,-0.87 5.93,0.9 2.69,2.69 2.32,2.97 1.96,3.25 1.55,3.44 1.13,3.63 0.68,3.71 0.22,3.79 -0.22,3.77 -0.68,3.74 -1.12,3.6 -1.56,3.47 -1.95,3.23 -2.34,2.99 -2.67,2.67 -2.99,2.34 -3.23,1.95 -3.47,1.56 -3.6,1.12 -3.74,0.68 -3.77,0.22 q -0.02,-0.45 0.06,-0.9 0.08,-0.45 0.27,-0.87 0.19,-0.41 0.47,-0.78 0.28,-0.36 0.28,-0.36 z"
       id="path1157" />
  </g>
  <g
     transform="matrix(0.65860679,0,0,0.79165716,79.401575,42.284521)"
     stroke="none"
     id="g1163">
    <path
       fill="#e03131"
       d="m 3.64,-0.78 q 0,0 1.9,4.85 1.9,4.86 2.47,8.64 0.57,3.79 1.31,8.17 0.73,4.38 1.03,7.06 0.3,2.69 0.49,5.76 0.19,3.07 -0.06,5.01 -0.25,1.93 -0.31,2.69 -0.07,0.76 -0.32,1.48 Q 9.91,43.61 9.5,44.25 9.09,44.89 8.53,45.41 7.98,45.94 7.32,46.32 6.66,46.69 5.92,46.9 5.19,47.11 4.43,47.14 3.67,47.16 2.92,47 2.18,46.85 1.49,46.52 0.8,46.19 0.22,45.7 -0.36,45.22 -0.82,44.6 -1.27,43.99 -1.56,43.29 -1.86,42.59 -1.98,41.83 -2.09,41.08 -2.84,34.91 -3.58,28.73 -3.69,21.89 -3.79,15.05 -4.19,11 -4.58,6.95 -5.11,4.04 -5.65,1.14 -5.62,0.36 q 0.02,-0.77 0.23,-1.52 0.2,-0.75 0.59,-1.43 0.38,-0.68 0.91,-1.25 0.53,-0.56 1.19,-0.99 0.65,-0.42 1.39,-0.68 0.73,-0.25 1.5,-0.32 0.77,-0.07 1.54,0.04 0.77,0.12 1.49,0.41 0.72,0.3 1.35,0.76 0.63,0.46 1.13,1.06 0.5,0.6 0.84,1.3 0.34,0.7 0.5,1.46 Q 7.21,-0.04 5.6,1.88 3.98,3.82 3.02,3.05 2.05,2.28 1.75,2.49 1.44,2.7 1.1,2.84 0.75,2.97 0.39,3.02 0.02,3.07 -0.34,3.02 -0.71,2.98 -1.05,2.85 -1.4,2.72 -1.71,2.52 -2.01,2.31 -2.26,2.03 -2.51,1.76 -2.68,1.43 -2.86,1.11 -2.95,0.75 -3.04,0.39 -3.04,0.02 q -0.01,-0.36 0.08,-0.72 0.09,-0.36 0.26,-0.69 0.16,-0.33 0.41,-0.61 0.24,-0.28 -0.21,0.45 -0.45,0.74 -0.25,0.28 0.21,-0.45 0.55,-0.81 0.34,-0.36 0.78,-0.59 0.44,-0.23 0.93,-0.31 0.49,-0.09 0.97,-0.01 0.49,0.08 0.93,0.32 0.44,0.23 0.78,0.59 0.35,0.36 0.55,0.81 0.21,0.45 0.27,0.95 Q 3.06,0.16 2.95,0.64 2.85,1.13 2.59,1.56 2.34,1.98 1.96,2.3 1.58,2.63 1.12,2.81 0.66,2.99 0.16,3.02 -0.32,3.05 -0.8,2.92 -1.28,2.78 -1.69,2.5 -2.11,2.23 -2.41,1.83 -2.71,1.44 -2.87,0.96 -3.02,0.49 -3.03,0 q 0,-0.49 0.16,-0.96 0.16,-0.47 0.46,-0.87 0.3,-0.39 0.71,-0.67 0.41,-0.28 0.89,-0.41 0.48,-0.14 0.97,-0.11 0.49,0.03 0.95,0.21 0.47,0.18 0.85,0.5 0.37,0.33 0.63,0.75 0.26,0.43 0.36,0.91 0.11,0.49 -0.4,1.7 Q 2.05,2.28 1.75,2.49 1.44,2.7 1.1,2.84 0.75,2.97 0.39,3.02 0.02,3.07 -0.34,3.02 -0.71,2.98 -1.05,2.85 -1.4,2.72 -1.71,2.52 -2.01,2.31 -2.26,2.03 -2.51,1.76 -2.68,1.43 -2.86,1.11 -2.95,0.75 -3.04,0.39 -3.04,0.02 q -0.01,-0.36 0.08,-0.72 0.09,-0.36 0.26,-0.69 0.16,-0.33 0.41,-0.61 0.24,-0.28 -1.56,1.43 -1.8,1.71 -1.77,0.93 0.02,-0.77 0.23,-1.52 0.2,-0.75 0.59,-1.43 0.38,-0.68 0.91,-1.25 0.53,-0.56 1.19,-0.99 0.65,-0.42 1.38,-0.68 0.74,-0.25 1.51,-0.32 0.77,-0.07 1.54,0.04 0.77,0.12 1.49,0.41 0.72,0.3 1.35,0.76 0.63,0.46 1.13,1.06 0.5,0.6 0.84,1.3 0.34,0.7 0.5,1.46 0.17,0.76 0.69,3.66 0.52,2.9 0.93,7.46 0.4,4.56 0.47,11.21 0.07,6.65 0.09,10.6 0.02,3.94 0.67,6.23 0.64,2.28 0.58,3.04 -0.07,0.76 -0.32,1.48 Q 9.91,43.61 9.5,44.25 9.09,44.89 8.54,45.41 7.98,45.94 7.32,46.32 6.66,46.69 5.93,46.9 5.19,47.11 4.43,47.14 3.67,47.16 2.92,47 2.18,46.85 1.49,46.52 0.8,46.19 0.22,45.7 q -0.58,-0.48 -1.04,-1.1 -0.45,-0.61 -0.74,-1.31 -0.3,-0.7 -0.42,-1.46 -0.11,-0.75 0.27,-2.71 0.38,-1.97 0.37,-4.68 -0.01,-2.72 -0.18,-5.21 -0.17,-2.49 -0.54,-6.9 -0.38,-4.41 -0.72,-7.78 -0.35,-3.36 -0.6,-8.57 -0.26,-5.2 -0.3,-5.65 -0.04,-0.44 0.03,-0.88 0.07,-0.45 0.24,-0.86 0.17,-0.42 0.44,-0.78 0.26,-0.36 0.61,-0.65 0.34,-0.28 0.75,-0.48 0.4,-0.2 0.84,-0.29 0.44,-0.09 0.88,-0.08 0.45,0.01 0.88,0.14 0.43,0.12 0.82,0.34 0.39,0.22 0.72,0.52 0.33,0.31 0.57,0.69 0.24,0.38 0.39,0.8 0.15,0.43 0.15,0.43 z"
       id="path1161" />
  </g>
  <g
     transform="matrix(0.65860679,0,0,0.79165716,166.66697,44.263664)"
     stroke="none"
     id="g1167">
    <path
       fill="#e03131"
       d="m 3.65,0.33 q 0,0 0.36,4.02 0.36,4.01 0.31,7.72 -0.05,3.71 0.38,8.68 0.43,4.96 1.1,12.17 0.66,7.21 1.75,18.5 1.08,11.29 1.88,20.42 0.8,9.13 1.5,16.58 0.69,7.44 1.02,15.46 0.34,8.03 0.11,15.18 -0.22,7.16 -0.33,12.93 -0.11,5.76 -0.51,11.99 -0.41,6.22 -0.57,10.86 -0.15,4.64 -0.22,7.69 -0.07,3.05 -0.11,5.41 -0.03,2.35 -0.04,5.14 -0.01,2.79 -0.39,6.48 -0.39,3.68 -0.52,7.05 -0.13,3.37 -0.17,6.97 -0.05,3.6 -0.45,6.96 -0.41,3.36 -0.55,5.85 -0.13,2.49 -0.19,4.63 -0.06,2.13 -0.09,4.46 -0.03,2.32 -0.04,5.99 -0.02,3.67 -0.01,7.4 0.02,3.73 0.32,6.69 0.31,2.95 0.51,5.17 0.21,2.23 0.31,5.44 0.11,3.21 -2.46,3.83 -2.57,0.62 -2.08,0.74 0.49,0.12 0.92,0.39 0.43,0.27 0.75,0.67 0.32,0.39 0.5,0.86 0.17,0.48 0.19,0.98 0.02,0.51 -0.13,0.99 -0.14,0.49 -0.44,0.9 -0.29,0.41 -0.7,0.71 -0.41,0.3 -0.89,0.45 -0.48,0.15 -0.99,0.14 -0.51,-0.01 -0.98,-0.18 -0.48,-0.17 -0.88,-0.49 -0.39,-0.31 -0.67,-0.74 -0.27,-0.42 -0.4,-0.91 -0.12,-0.49 -0.08,-1 0.03,-0.5 0.23,-0.97 0.2,-0.46 0.53,-0.84 0.34,-0.38 0.78,-0.63 0.44,-0.26 0.94,-0.35 0.49,-0.1 0.99,-0.04 0.51,0.07 0.96,0.29 0.46,0.22 0.82,0.58 0.36,0.35 0.58,0.81 0.23,0.45 0.3,0.95 0.07,0.5 -0.02,1 -0.09,0.5 -0.34,0.94 -0.24,0.44 -0.62,0.78 -0.37,0.34 -0.84,0.54 -0.46,0.21 -0.97,0.25 -0.5,0.05 -0.5,0.05 0,0 -3.88,-4.7 -3.89,-4.7 -4.04,-7.9 -0.15,-3.2 -0.57,-5.66 -0.41,-2.45 -0.39,-5.86 0.02,-3.4 0.02,-5.53 0,-2.12 0.02,-5.85 0.02,-3.73 0.06,-6.18 0.03,-2.45 0.11,-4.78 0.08,-2.32 0.27,-5.26 0.2,-2.93 0.56,-5.57 0.37,-2.64 0.46,-6.4 0.09,-3.76 0.27,-7.55 0.18,-3.79 0.52,-6.81 0.35,-3.02 0.37,-5.86 0.01,-2.83 0.04,-5.26 0.03,-2.43 0.1,-5.56 0.08,-3.13 0.26,-7.96 0.19,-4.83 0.59,-10.74 0.4,-5.91 0.49,-11.79 0.09,-5.87 0.34,-12.57 0.25,-6.7 0.01,-14.38 Q -1.13,97.02 -1.79,89.52 -2.46,82.01 -3.16,72.87 -3.87,63.73 -4.63,52.33 -5.39,40.92 -5.7,33.63 -6,26.34 -6.16,20.85 q -0.16,-5.48 0.1,-9.45 0.25,-3.96 1.33,-7.85 1.08,-3.88 1.18,-4.31 0.09,-0.43 0.28,-0.83 0.2,-0.4 0.48,-0.74 0.28,-0.34 0.64,-0.6 0.35,-0.26 0.76,-0.43 0.41,-0.17 0.85,-0.23 0.43,-0.07 0.86,-0.03 0.44,0.04 0.86,0.18 0.42,0.15 0.79,0.39 0.37,0.24 0.68,0.56 0.3,0.32 0.52,0.71 0.21,0.38 0.33,0.81 0.12,0.42 0.13,0.87 0.02,0.43 0.02,0.43 z"
       id="path1165" />
  </g>
  <g
     transform="matrix(0.65860679,0,0,0.79165716,206.18338,37.336663)"
     stroke="none"
     id="g1171">
    <path
       fill="#e03131"
       d="m 3.22,0 q 0,0 0.77,3.59 0.76,3.59 1.66,12.19 0.9,8.59 1.97,18.99 1.07,10.39 1.84,18.8 0.78,8.42 1.1,13.14 0.33,4.72 0.49,8.23 0.16,3.5 0.6,7.26 0.43,3.75 0.65,9.26 0.22,5.51 0.32,12.14 0.1,6.63 0.51,12.1 0.41,5.47 0.59,9.02 0.17,3.56 0.26,5.81 0.08,2.26 -0.26,5.49 -0.34,3.24 -0.45,6.64 -0.1,3.41 -0.18,8.12 -0.07,4.71 -0.46,9.5 -0.38,4.8 -0.53,9.09 -0.14,4.29 -0.21,6.87 -0.06,2.58 -0.09,5.78 -0.02,3.2 0.32,6.39 0.34,3.19 0.5,7.04 0.16,3.86 0.6,7.32 0.43,3.47 0.63,7.42 0.2,3.96 0.28,7.79 0.07,3.84 0.12,6.17 0.05,2.33 0.42,7.06 0.36,4.73 0.54,8.05 0.18,3.32 0.8,7.68 0.62,4.36 -0.83,7.21 -1.44,2.84 -1.23,3.28 0.22,0.45 0.28,0.94 0.06,0.49 -0.04,0.97 -0.09,0.48 -0.34,0.91 -0.25,0.43 -0.62,0.75 -0.37,0.33 -0.82,0.52 -0.46,0.19 -0.95,0.23 -0.49,0.03 -0.97,-0.09 -0.48,-0.13 -0.89,-0.4 -0.41,-0.27 -0.72,-0.65 -0.3,-0.39 -0.47,-0.85 -0.16,-0.47 -0.17,-0.96 -0.01,-0.5 0.14,-0.97 0.15,-0.47 0.44,-0.86 0.29,-0.4 0.69,-0.69 0.41,-0.28 0.88,-0.42 0.47,-0.14 0.97,-0.12 0.49,0.02 0.95,0.19 0.46,0.18 0.84,0.49 0.38,0.31 0.65,0.73 0.26,0.42 0.37,0.9 0.12,0.48 0.07,0.97 -0.04,0.49 -0.24,0.94 -0.2,0.45 -0.54,0.82 -0.33,0.36 -0.76,0.6 -0.43,0.24 -0.92,0.33 -0.48,0.08 -0.97,0.01 -0.49,-0.07 -0.93,-0.29 -0.44,-0.23 -0.78,-0.58 -0.35,-0.35 -0.35,-0.35 0,0 -2.89,-2.51 -2.89,-2.5 -3.1,-5.79 -0.2,-3.28 -0.66,-6.1 -0.46,-2.81 -0.59,-5.66 -0.13,-2.86 -0.52,-8.31 -0.4,-5.45 -0.41,-7.74 -0.02,-2.29 -0.09,-5.94 -0.08,-3.65 -0.24,-7.16 -0.16,-3.51 -0.56,-7.48 -0.41,-3.96 -0.54,-7.43 -0.13,-3.47 -0.49,-7.37 -0.35,-3.9 -0.32,-7.23 0.04,-3.32 0.11,-5.97 0.07,-2.64 0.26,-7.25 0.18,-4.61 0.56,-8.93 0.38,-4.31 0.43,-9.19 0.05,-4.89 0.22,-8.83 0.16,-3.95 0.48,-6.18 0.32,-2.23 0.26,-4.38 -0.05,-2.14 -0.21,-5.55 -0.16,-3.42 -0.52,-9.27 -0.37,-5.85 -0.42,-12.34 Q -0.55,97.41 -0.68,92.36 -0.81,87.3 -1.21,83.12 -1.6,78.94 -1.71,75.61 -1.81,72.28 -2.1,67.68 -2.39,63.08 -3.08,54.64 -3.77,46.19 -4.44,35.52 -5.11,24.85 -4.93,16.02 -4.75,7.18 -3.99,3.59 -3.22,0 -3.17,-0.38 q 0.04,-0.39 0.18,-0.75 0.14,-0.36 0.36,-0.68 0.22,-0.32 0.51,-0.58 0.29,-0.26 0.64,-0.44 0.34,-0.18 0.72,-0.27 0.38,-0.1 0.76,-0.1 0.38,0 0.76,0.1 0.38,0.09 0.72,0.27 0.35,0.18 0.64,0.44 0.29,0.26 0.51,0.58 0.22,0.32 0.36,0.68 0.14,0.36 0.18,0.75 Q 3.22,0 3.22,0 Z"
       id="path1169" />
  </g>
  <g
     transform="matrix(0.65860679,0,0,0.79165716,78.578317,45.253235)"
     stroke="none"
     id="g1175">
    <path
       fill="#e03131"
       d="m 3.33,0 q 0,0 1.02,3.23 1.02,3.24 0.65,6.08 -0.37,2.84 -0.44,8.95 -0.06,6.11 0.23,8.45 0.28,2.34 -0.81,5.85 -1.1,3.51 -1.15,3.98 -0.05,0.46 -0.24,0.89 -0.2,0.42 -0.52,0.76 -0.31,0.34 -0.73,0.57 -0.41,0.22 -0.87,0.29 -0.46,0.08 -0.91,0.01 -0.46,-0.07 -0.88,-0.29 -0.41,-0.22 -0.73,-0.55 -0.33,-0.34 -0.52,-0.76 -0.2,-0.43 -0.26,-0.89 -0.05,-0.47 0.05,-0.92 0.1,-0.46 0.34,-0.86 0.23,-0.4 0.59,-0.71 0.35,-0.3 0.79,-0.48 0.43,-0.17 0.9,-0.2 0.45,-0.03 0.9,0.1 0.45,0.12 0.84,0.38 0.39,0.26 0.67,0.63 0.29,0.37 0.44,0.81 0.15,0.44 0.15,0.91 0.01,0.47 -0.14,0.91 -0.15,0.44 -0.43,0.82 -0.28,0.37 -0.66,0.64 -0.39,0.26 -0.84,0.39 -0.45,0.12 -0.9,0.1 -0.47,-0.02 -0.91,-0.19 -0.43,-0.17 -0.79,-0.47 -0.36,-0.3 -0.6,-0.7 -0.24,-0.4 -0.34,-0.86 -0.11,-0.45 -0.11,-0.45 0,0 -1.59,-3.01 -1.59,-3 -1.96,-6.09 -0.37,-3.1 -0.2,-8 0.17,-4.9 0.72,-8.88 0.54,-3.98 1.56,-7.21 1.02,-3.23 1.07,-3.62 0.05,-0.4 0.19,-0.78 0.14,-0.37 0.37,-0.7 0.23,-0.33 0.53,-0.6 0.3,-0.27 0.66,-0.45 0.35,-0.19 0.74,-0.29 Q -0.4,-3.3 0,-3.3 q 0.4,0 0.79,0.09 0.39,0.1 0.74,0.29 0.36,0.18 0.66,0.45 0.3,0.27 0.53,0.6 0.23,0.33 0.37,0.7 0.14,0.38 0.19,0.78 Q 3.33,0 3.33,0 Z"
       id="path1173" />
  </g>
</svg>
