<svg version="1.1" xmlns="http://www.w3.org/2000/svg" viewBox="0 0 265 283.75" width="265" height="283.75"><!-- svg-source:excalidraw --><metadata></metadata><defs><style class="style-fonts">
      </style></defs><g transform="translate(11.25 88.75) rotate(0 58.75 58.125)" stroke="none"><path fill="#e03131" d="M -2.69,-2.69 Q -2.69,-2.69 -0.90,-5.94 0.88,-9.19 3.70,-11.36 6.52,-13.53 11.32,-17.55 16.12,-21.56 25.65,-27.83 35.18,-34.10 43.39,-38.26 51.61,-42.42 59.28,-46.29 66.96,-50.15 72.97,-52.62 78.97,-55.09 82.08,-56.43 85.19,-57.76 87.07,-59.12 88.95,-60.48 92.38,-62.42 95.82,-64.36 98.68,-65.88 101.55,-67.40 105.03,-68.61 108.51,-69.81 110.92,-70.61 113.33,-71.40 115.88,-71.36 118.42,-71.31 120.59,-70.13 122.76,-68.94 123.02,-64.66 123.28,-60.38 121.95,-55.64 120.61,-50.91 118.66,-45.96 116.71,-41.02 114.82,-36.09 112.93,-31.15 111.01,-26.45 109.10,-21.76 106.86,-16.21 104.63,-10.67 102.62,-5.47 100.62,-0.27 98.94,3.27 97.26,6.82 95.55,10.65 93.83,14.49 91.61,19.12 89.39,23.75 86.66,29.30 83.92,34.86 82.47,38.16 81.01,41.46 79.67,44.65 78.33,47.84 75.89,52.97 73.45,58.10 71.43,62.93 69.42,67.77 67.05,73.16 64.69,78.54 62.62,83.33 60.56,88.11 58.61,92.66 56.66,97.21 53.98,102.86 51.30,108.51 49.87,111.82 48.44,115.13 47.13,118.34 45.81,121.55 43.82,126.50 41.82,131.45 40.28,135.62 38.74,139.79 37.37,143.71 36.00,147.63 34.72,151.72 33.45,155.81 32.11,159.28 30.76,162.75 29.71,166.10 28.66,169.44 26.79,173.24 24.93,177.04 22.69,179.94 20.45,182.85 20.32,183.31 20.19,183.77 19.91,184.17 19.64,184.57 19.25,184.85 18.86,185.14 18.41,185.29 17.95,185.44 17.47,185.43 16.98,185.43 16.53,185.27 16.07,185.11 15.69,184.82 15.31,184.52 15.05,184.12 14.78,183.72 14.65,183.25 14.53,182.79 14.56,182.31 14.59,181.83 14.77,181.38 14.96,180.93 15.27,180.57 15.59,180.20 16.00,179.96 16.42,179.72 16.89,179.62 17.36,179.52 17.84,179.58 18.32,179.63 18.76,179.84 19.19,180.05 19.54,180.38 19.89,180.72 20.11,181.14 20.33,181.57 20.40,182.05 20.47,182.53 20.39,183.00 20.31,183.48 20.08,183.90 19.85,184.32 19.50,184.65 19.14,184.98 18.70,185.18 18.26,185.37 17.78,185.42 17.30,185.47 16.83,185.36 16.36,185.25 15.95,185.00 15.54,184.75 15.23,184.38 14.93,184.00 14.75,183.56 14.58,183.11 14.56,182.62 14.54,182.14 14.54,182.14 14.54,182.14 13.17,179.01 11.80,175.88 12.38,173.13 12.95,170.39 14.26,167.79 15.58,165.19 16.79,161.45 18.00,157.71 19.20,154.73 20.40,151.75 21.75,147.44 23.10,143.12 24.50,139.09 25.90,135.07 27.51,130.69 29.11,126.32 31.13,121.32 33.16,116.32 34.54,113.02 35.91,109.73 37.44,106.18 38.96,102.64 41.54,97.23 44.12,91.82 46.08,87.27 48.04,82.71 50.11,77.91 52.18,73.11 54.46,67.79 56.75,62.47 58.90,57.32 61.06,52.18 63.38,47.36 65.69,42.54 67.08,39.22 68.46,35.90 70.04,32.35 71.62,28.80 74.34,23.31 77.05,17.82 79.19,13.36 81.33,8.91 83.12,4.91 84.91,0.90 86.39,-2.15 87.88,-5.21 89.93,-10.49 91.99,-15.77 94.24,-21.34 96.49,-26.92 98.37,-31.48 100.24,-36.05 102.19,-41.06 104.14,-46.07 106.15,-51.01 108.17,-55.95 109.36,-58.85 110.56,-61.76 112.12,-63.95 113.68,-66.14 115.45,-62.46 117.23,-58.79 114.94,-58.02 112.66,-57.26 110.17,-56.49 107.69,-55.72 104.97,-54.29 102.25,-52.86 99.30,-51.24 96.36,-49.61 93.39,-47.66 90.41,-45.71 87.17,-44.32 83.93,-42.93 78.38,-40.69 72.83,-38.45 65.16,-34.61 57.49,-30.77 49.87,-26.94 42.25,-23.12 33.14,-17.37 24.03,-11.62 18.79,-7.65 13.56,-3.67 11.36,-2.27 9.17,-0.87 5.93,0.90 2.69,2.69 2.32,2.97 1.96,3.25 1.55,3.44 1.13,3.63 0.68,3.71 0.22,3.79 -0.22,3.77 -0.68,3.74 -1.12,3.60 -1.56,3.47 -1.95,3.23 -2.34,2.99 -2.67,2.67 -2.99,2.34 -3.23,1.95 -3.47,1.56 -3.60,1.12 -3.74,0.68 -3.77,0.22 -3.79,-0.23 -3.71,-0.68 -3.63,-1.13 -3.44,-1.55 -3.25,-1.96 -2.97,-2.33 -2.69,-2.69 -2.69,-2.69 L -2.69,-2.69 Z"></path></g><g transform="translate(51.25 16.25) rotate(0 1.875 20)" stroke="none"><path fill="#e03131" d="M 3.64,-0.78 Q 3.64,-0.78 5.54,4.07 7.44,8.93 8.01,12.71 8.58,16.50 9.32,20.88 10.05,25.26 10.35,27.94 10.65,30.63 10.84,33.70 11.03,36.77 10.78,38.71 10.53,40.64 10.47,41.40 10.40,42.16 10.15,42.88 9.91,43.61 9.50,44.25 9.09,44.89 8.53,45.41 7.98,45.94 7.32,46.32 6.66,46.69 5.92,46.90 5.19,47.11 4.43,47.14 3.67,47.16 2.92,47.00 2.18,46.85 1.49,46.52 0.80,46.19 0.22,45.70 -0.36,45.22 -0.82,44.60 -1.27,43.99 -1.56,43.29 -1.86,42.59 -1.98,41.83 -2.09,41.08 -2.84,34.91 -3.58,28.73 -3.69,21.89 -3.79,15.05 -4.19,11.00 -4.58,6.95 -5.11,4.04 -5.65,1.14 -5.62,0.36 -5.60,-0.41 -5.39,-1.16 -5.19,-1.91 -4.80,-2.59 -4.42,-3.27 -3.89,-3.84 -3.36,-4.40 -2.70,-4.83 -2.05,-5.25 -1.31,-5.51 -0.58,-5.76 0.19,-5.83 0.96,-5.90 1.73,-5.79 2.50,-5.67 3.22,-5.38 3.94,-5.08 4.57,-4.62 5.20,-4.16 5.70,-3.56 6.20,-2.96 6.54,-2.26 6.88,-1.56 7.04,-0.80 7.21,-0.04 5.60,1.88 3.98,3.82 3.02,3.05 2.05,2.28 1.75,2.49 1.44,2.70 1.10,2.84 0.75,2.97 0.39,3.02 0.02,3.07 -0.34,3.02 -0.71,2.98 -1.05,2.85 -1.40,2.72 -1.71,2.52 -2.01,2.31 -2.26,2.03 -2.51,1.76 -2.68,1.43 -2.86,1.11 -2.95,0.75 -3.04,0.39 -3.04,0.02 -3.05,-0.34 -2.96,-0.70 -2.87,-1.06 -2.70,-1.39 -2.54,-1.72 -2.29,-2.00 -2.05,-2.28 -2.50,-1.55 -2.95,-0.81 -2.75,-1.27 -2.54,-1.72 -2.20,-2.08 -1.86,-2.44 -1.42,-2.67 -0.98,-2.90 -0.49,-2.98 -0.00,-3.07 0.48,-2.99 0.97,-2.91 1.41,-2.67 1.85,-2.44 2.19,-2.08 2.54,-1.72 2.74,-1.27 2.95,-0.82 3.01,-0.32 3.06,0.16 2.95,0.64 2.85,1.13 2.59,1.56 2.34,1.98 1.96,2.30 1.58,2.63 1.12,2.81 0.66,2.99 0.16,3.02 -0.32,3.05 -0.80,2.92 -1.28,2.78 -1.69,2.50 -2.11,2.23 -2.41,1.83 -2.71,1.44 -2.87,0.96 -3.02,0.49 -3.03,0.00 -3.03,-0.49 -2.87,-0.96 -2.71,-1.43 -2.41,-1.83 -2.11,-2.22 -1.70,-2.50 -1.29,-2.78 -0.81,-2.91 -0.33,-3.05 0.16,-3.02 0.65,-2.99 1.11,-2.81 1.58,-2.63 1.96,-2.31 2.33,-1.98 2.59,-1.56 2.85,-1.13 2.95,-0.65 3.06,-0.16 2.55,1.05 2.05,2.28 1.75,2.49 1.44,2.70 1.10,2.84 0.75,2.97 0.39,3.02 0.02,3.07 -0.34,3.02 -0.71,2.98 -1.05,2.85 -1.40,2.72 -1.71,2.52 -2.01,2.31 -2.26,2.03 -2.51,1.76 -2.68,1.43 -2.86,1.11 -2.95,0.75 -3.04,0.39 -3.04,0.02 -3.05,-0.34 -2.96,-0.70 -2.87,-1.06 -2.70,-1.39 -2.54,-1.72 -2.29,-2.00 -2.05,-2.28 -3.85,-0.57 -5.65,1.14 -5.62,0.36 -5.60,-0.41 -5.39,-1.16 -5.19,-1.91 -4.80,-2.59 -4.42,-3.27 -3.89,-3.84 -3.36,-4.40 -2.70,-4.83 -2.05,-5.25 -1.32,-5.51 -0.58,-5.76 0.19,-5.83 0.96,-5.90 1.73,-5.79 2.50,-5.67 3.22,-5.38 3.94,-5.08 4.57,-4.62 5.20,-4.16 5.70,-3.56 6.20,-2.96 6.54,-2.26 6.88,-1.56 7.04,-0.80 7.21,-0.04 7.73,2.86 8.25,5.76 8.66,10.32 9.06,14.88 9.13,21.53 9.20,28.18 9.22,32.13 9.24,36.07 9.89,38.36 10.53,40.64 10.47,41.40 10.40,42.16 10.15,42.88 9.91,43.61 9.50,44.25 9.09,44.89 8.54,45.41 7.98,45.94 7.32,46.32 6.66,46.69 5.93,46.90 5.19,47.11 4.43,47.14 3.67,47.16 2.92,47.00 2.18,46.85 1.49,46.52 0.80,46.19 0.22,45.70 -0.36,45.22 -0.82,44.60 -1.27,43.99 -1.56,43.29 -1.86,42.59 -1.98,41.83 -2.09,41.08 -1.71,39.12 -1.33,37.15 -1.34,34.44 -1.35,31.72 -1.52,29.23 -1.69,26.74 -2.06,22.33 -2.44,17.92 -2.78,14.55 -3.13,11.19 -3.38,5.98 -3.64,0.78 -3.68,0.33 -3.72,-0.11 -3.65,-0.55 -3.58,-1.00 -3.41,-1.41 -3.24,-1.83 -2.97,-2.19 -2.71,-2.55 -2.36,-2.84 -2.02,-3.12 -1.61,-3.32 -1.21,-3.52 -0.77,-3.61 -0.33,-3.70 0.11,-3.69 0.56,-3.68 0.99,-3.55 1.42,-3.43 1.81,-3.21 2.20,-2.99 2.53,-2.69 2.86,-2.38 3.10,-2.00 3.34,-1.62 3.49,-1.20 3.64,-0.77 3.64,-0.77 L 3.64,-0.78 Z"></path></g><g transform="translate(183.75 18.75) rotate(0 2.5 127.5)" stroke="none"><path fill="#e03131" d="M 3.65,0.33 Q 3.65,0.33 4.01,4.35 4.37,8.36 4.32,12.07 4.27,15.78 4.70,20.75 5.13,25.71 5.80,32.92 6.46,40.13 7.55,51.42 8.63,62.71 9.43,71.84 10.23,80.97 10.93,88.42 11.62,95.86 11.95,103.88 12.29,111.91 12.06,119.06 11.84,126.22 11.73,131.99 11.62,137.75 11.22,143.98 10.81,150.20 10.65,154.84 10.50,159.48 10.43,162.53 10.36,165.58 10.32,167.94 10.29,170.29 10.28,173.08 10.27,175.87 9.89,179.56 9.50,183.24 9.37,186.61 9.24,189.98 9.20,193.58 9.15,197.18 8.75,200.54 8.34,203.90 8.20,206.39 8.07,208.88 8.01,211.02 7.95,213.15 7.92,215.48 7.89,217.80 7.88,221.47 7.86,225.14 7.87,228.87 7.89,232.60 8.19,235.56 8.50,238.51 8.70,240.73 8.91,242.96 9.01,246.17 9.12,249.38 6.55,250.00 3.98,250.62 4.47,250.74 4.96,250.86 5.39,251.13 5.82,251.40 6.14,251.80 6.46,252.19 6.64,252.66 6.81,253.14 6.83,253.64 6.85,254.15 6.70,254.63 6.56,255.12 6.26,255.53 5.97,255.94 5.56,256.24 5.15,256.54 4.67,256.69 4.19,256.84 3.68,256.83 3.17,256.82 2.70,256.65 2.22,256.48 1.82,256.16 1.43,255.85 1.15,255.42 0.88,255.00 0.75,254.51 0.63,254.02 0.67,253.51 0.70,253.01 0.90,252.54 1.10,252.08 1.43,251.70 1.77,251.32 2.21,251.07 2.65,250.81 3.15,250.72 3.64,250.62 4.14,250.68 4.65,250.75 5.10,250.97 5.56,251.19 5.92,251.55 6.28,251.90 6.50,252.36 6.73,252.81 6.80,253.31 6.87,253.81 6.78,254.31 6.69,254.81 6.44,255.25 6.20,255.69 5.82,256.03 5.45,256.37 4.98,256.57 4.52,256.78 4.01,256.82 3.51,256.87 3.51,256.87 3.51,256.87 -0.37,252.17 -4.26,247.47 -4.41,244.27 -4.56,241.07 -4.98,238.61 -5.39,236.16 -5.37,232.75 -5.35,229.35 -5.35,227.22 -5.35,225.10 -5.33,221.37 -5.31,217.64 -5.27,215.19 -5.24,212.74 -5.16,210.41 -5.08,208.09 -4.89,205.15 -4.69,202.22 -4.33,199.58 -3.96,196.94 -3.87,193.18 -3.78,189.42 -3.60,185.63 -3.42,181.84 -3.08,178.82 -2.73,175.80 -2.71,172.96 -2.70,170.13 -2.67,167.70 -2.64,165.27 -2.57,162.14 -2.49,159.01 -2.31,154.18 -2.12,149.35 -1.72,143.44 -1.32,137.53 -1.23,131.65 -1.14,125.78 -0.89,119.08 -0.64,112.38 -0.88,104.70 -1.13,97.02 -1.79,89.52 -2.46,82.01 -3.16,72.87 -3.87,63.73 -4.63,52.33 -5.39,40.92 -5.70,33.63 -6.00,26.34 -6.16,20.85 -6.32,15.37 -6.06,11.40 -5.81,7.44 -4.73,3.55 -3.65,-0.33 -3.55,-0.76 -3.46,-1.19 -3.27,-1.59 -3.07,-1.99 -2.79,-2.33 -2.51,-2.67 -2.15,-2.93 -1.80,-3.19 -1.39,-3.36 -0.98,-3.53 -0.54,-3.59 -0.11,-3.66 0.32,-3.62 0.76,-3.58 1.18,-3.44 1.60,-3.29 1.97,-3.05 2.34,-2.81 2.65,-2.49 2.95,-2.17 3.17,-1.78 3.38,-1.40 3.50,-0.97 3.62,-0.55 3.63,-0.10 3.65,0.33 3.65,0.33 L 3.65,0.33 Z"></path></g><g transform="translate(243.75 10) rotate(0 5 130)" stroke="none"><path fill="#e03131" d="M 3.22,0 Q 3.22,0 3.99,3.59 4.75,7.18 5.65,15.78 6.55,24.37 7.62,34.77 8.69,45.16 9.46,53.57 10.24,61.99 10.56,66.71 10.89,71.43 11.05,74.94 11.21,78.44 11.65,82.20 12.08,85.95 12.30,91.46 12.52,96.97 12.62,103.60 12.72,110.23 13.13,115.70 13.54,121.17 13.72,124.72 13.89,128.28 13.98,130.53 14.06,132.79 13.72,136.02 13.38,139.26 13.27,142.66 13.17,146.07 13.09,150.78 13.02,155.49 12.63,160.28 12.25,165.08 12.10,169.37 11.96,173.66 11.89,176.24 11.83,178.82 11.80,182.02 11.78,185.22 12.12,188.41 12.46,191.60 12.62,195.45 12.78,199.31 13.22,202.77 13.65,206.24 13.85,210.19 14.05,214.15 14.13,217.98 14.20,221.82 14.25,224.15 14.30,226.48 14.67,231.21 15.03,235.94 15.21,239.26 15.39,242.58 16.01,246.94 16.63,251.30 15.18,254.15 13.74,256.99 13.95,257.43 14.17,257.88 14.23,258.37 14.29,258.86 14.19,259.34 14.10,259.82 13.85,260.25 13.60,260.68 13.23,261.00 12.86,261.33 12.41,261.52 11.95,261.71 11.46,261.75 10.97,261.78 10.49,261.66 10.01,261.53 9.60,261.26 9.19,260.99 8.88,260.61 8.58,260.22 8.41,259.76 8.25,259.29 8.24,258.80 8.23,258.30 8.38,257.83 8.53,257.36 8.82,256.97 9.11,256.57 9.51,256.28 9.92,256.00 10.39,255.86 10.86,255.72 11.36,255.74 11.85,255.76 12.31,255.93 12.77,256.11 13.15,256.42 13.53,256.73 13.80,257.15 14.06,257.57 14.17,258.05 14.29,258.53 14.24,259.02 14.20,259.51 14.00,259.96 13.80,260.41 13.46,260.78 13.13,261.14 12.70,261.38 12.27,261.62 11.78,261.71 11.30,261.79 10.81,261.72 10.32,261.65 9.88,261.43 9.44,261.20 9.10,260.85 8.75,260.50 8.75,260.50 8.75,260.50 5.86,257.99 2.97,255.49 2.76,252.20 2.56,248.92 2.10,246.10 1.64,243.29 1.51,240.44 1.38,237.58 0.99,232.13 0.59,226.68 0.58,224.39 0.56,222.10 0.49,218.45 0.41,214.80 0.25,211.29 0.09,207.78 -0.31,203.81 -0.72,199.85 -0.85,196.38 -0.98,192.91 -1.34,189.01 -1.69,185.11 -1.66,181.78 -1.62,178.46 -1.55,175.81 -1.48,173.17 -1.29,168.56 -1.11,163.95 -0.73,159.63 -0.35,155.32 -0.30,150.44 -0.25,145.55 -0.08,141.61 0.08,137.66 0.40,135.43 0.72,133.20 0.66,131.05 0.61,128.91 0.45,125.50 0.29,122.08 -0.07,116.23 -0.44,110.38 -0.49,103.89 -0.55,97.41 -0.68,92.36 -0.81,87.30 -1.21,83.12 -1.60,78.94 -1.71,75.61 -1.81,72.28 -2.10,67.68 -2.39,63.08 -3.08,54.64 -3.77,46.19 -4.44,35.52 -5.11,24.85 -4.93,16.02 -4.75,7.18 -3.99,3.59 -3.22,0 -3.17,-0.38 -3.13,-0.77 -2.99,-1.13 -2.85,-1.49 -2.63,-1.81 -2.41,-2.13 -2.12,-2.39 -1.83,-2.65 -1.48,-2.83 -1.14,-3.01 -0.76,-3.10 -0.38,-3.20 0.00,-3.20 0.38,-3.20 0.76,-3.10 1.14,-3.01 1.48,-2.83 1.83,-2.65 2.12,-2.39 2.41,-2.13 2.63,-1.81 2.85,-1.49 2.99,-1.13 3.13,-0.77 3.17,-0.38 3.22,0.00 3.22,0.00 L 3.22,0 Z"></path></g><g transform="translate(50 20) rotate(0 0 18.125)" stroke="none"><path fill="#e03131" d="M 3.33,0 Q 3.33,0 4.35,3.23 5.37,6.47 5.00,9.31 4.63,12.15 4.56,18.26 4.50,24.37 4.79,26.71 5.07,29.05 3.98,32.56 2.88,36.07 2.83,36.54 2.78,37.00 2.59,37.43 2.39,37.85 2.07,38.19 1.76,38.53 1.34,38.76 0.93,38.98 0.47,39.05 0.01,39.13 -0.44,39.06 -0.90,38.99 -1.32,38.77 -1.73,38.55 -2.05,38.22 -2.38,37.88 -2.57,37.46 -2.77,37.03 -2.83,36.57 -2.88,36.10 -2.78,35.65 -2.68,35.19 -2.44,34.79 -2.21,34.39 -1.85,34.08 -1.50,33.78 -1.06,33.60 -0.63,33.43 -0.16,33.40 0.29,33.37 0.74,33.50 1.19,33.62 1.58,33.88 1.97,34.14 2.25,34.51 2.54,34.88 2.69,35.32 2.84,35.76 2.84,36.23 2.85,36.70 2.70,37.14 2.55,37.58 2.27,37.96 1.99,38.33 1.61,38.60 1.22,38.86 0.77,38.99 0.32,39.11 -0.13,39.09 -0.60,39.07 -1.04,38.90 -1.47,38.73 -1.83,38.43 -2.19,38.13 -2.43,37.73 -2.67,37.33 -2.77,36.87 -2.88,36.42 -2.88,36.42 -2.88,36.42 -4.47,33.41 -6.06,30.41 -6.43,27.32 -6.80,24.22 -6.63,19.32 -6.46,14.42 -5.91,10.44 -5.37,6.46 -4.35,3.23 -3.33,0 -3.28,-0.39 -3.23,-0.79 -3.09,-1.17 -2.95,-1.54 -2.72,-1.87 -2.49,-2.20 -2.19,-2.47 -1.89,-2.74 -1.53,-2.92 -1.18,-3.11 -0.79,-3.21 -0.40,-3.30 0.00,-3.30 0.40,-3.30 0.79,-3.21 1.18,-3.11 1.53,-2.92 1.89,-2.74 2.19,-2.47 2.49,-2.20 2.72,-1.87 2.95,-1.54 3.09,-1.17 3.23,-0.79 3.28,-0.39 3.33,0.00 3.33,0.00 L 3.33,0 Z"></path></g></svg>